<?xml version="1.0" encoding="utf-8"?>
<!-- Generator: Adobe Illustrator 15.0.0, SVG Export Plug-In . SVG Version: 6.00 Build 0)  -->
<!DOCTYPE svg PUBLIC "-//W3C//DTD SVG 1.1//EN" "http://www.w3.org/Graphics/SVG/1.1/DTD/svg11.dtd">
<svg version="1.1"
	 id="svg2" xmlns:svg="http://www.w3.org/2000/svg" xmlns:rdf="http://www.w3.org/1999/02/22-rdf-syntax-ns#" xmlns:cc="http://creativecommons.org/ns#" xmlns:dc="http://purl.org/dc/elements/1.1/"
	 xmlns="http://www.w3.org/2000/svg" xmlns:xlink="http://www.w3.org/1999/xlink" x="0px" y="0px" width="322px" height="147px"
	 viewBox="0 0 322 147" enable-background="new 0 0 322 147" xml:space="preserve">
<g id="CKkNUE_1_">
	<g id="XMLID_2_">
		<g>
			<path fill="#FFFFFF" d="M60.202,24.007c27.462-1.895,47.001,17.3,51.679,38.927c6.366,29.433-11.905,48.779-31.348,56.84
				c13.118-18.402,15.433-59.795-7.234-68.896c-16.425-6.594-32.471,4.485-32.382,20.324C41,85.601,54.428,97.093,70.199,91.87
				c-0.103,7.406-1.536,12.712-4.485,18.258c-1.929,3.638-6.628,11.465-10.672,12.057c-4.106,0.606-14.034-4.52-16.88-6.2
				c-13.366-7.909-25.182-23.46-24.121-44.783C15.315,45.696,34.869,25.757,60.202,24.007z"/>
		</g>
		<g>
		</g>
	</g>
</g>
<text transform="matrix(1 0 0 1 117.8159 102.3623)" fill="#FFFFFF" font-family="'Masque'" font-size="75.4903">ONZ</text>
</svg>
